#!OML:ASF F:\VICON\USERDATA\INSTALL\rory3\rory3.ASF
:FULLY-SPECIFIED
:DEGREES
1291
root 0.970058 15.7063 2.98587 5.42471 -46.6132 11.9554
lowerback 0.0244928 4.77043 5.84268
upperback 5.72528 6.19226 -1.14525
thorax 6.74197 3.39659 -4.05466
lowerneck 0.542213 -8.98721 -13.0652
upperneck 47.093 -17.7453 8.65911
head 21.2288 -8.81135 3.83567
rclavicle -6.2816e-014 -6.36111e-015
rhumerus -20.5417 27.5234 -96.7274
rradius 20.7316
rwrist 16.7995
rhand -26.3358 -53.3709
rfingers 7.12502
rthumb 0.221443 -83.3505
lclavicle -6.2816e-014 -6.36111e-015
lhumerus -46.5214 -82.8507 122.463
lradius 85.0398
lwrist 23.0989
lhand 6.25874 -21.8943
lfingers 7.12502
lthumb 31.5698 5.39698
rfemur -34.0201 2.23001 -4.68366
rtibia 76.304
rfoot -1.71532 -8.55168
rtoes -30.8116
lfemur -49.6914 -18.412 -28.8162
ltibia 57.9252
lfoot -20.9733 1.22693
ltoes 16.6129
1292
root 0.966517 15.7047 2.98341 5.45748 -46.6038 12.0146
lowerback -0.07757 4.7741 5.74909
upperback 5.71671 6.19441 -1.1282
thorax 6.77787 3.39242 -3.97679
lowerneck 0.467232 -9.10399 -12.9633
upperneck 47.1601 -17.8839 8.48646
head 21.2834 -8.8566 3.69439
rclavicle 8.90555e-014 9.54166e-015
rhumerus -20.545 27.626 -96.7069
rradius 20.74
rwrist 16.6385
rhand -26.0397 -53.8424
rfingers 7.12502
rthumb 0.507427 -83.8216
lclavicle 8.90555e-014 9.54166e-015
lhumerus -46.1796 -82.8204 122.168
lradius 84.9821
lwrist 23.1146
lhand 6.03469 -21.1738
lfingers 7.12502
lthumb 31.3564 6.15917
rfemur -34.1151 2.17601 -4.71602
rtibia 76.3349
rfoot -1.66635 -8.50233
rtoes -32.3298
lfemur -49.7834 -18.4188 -28.8069
ltibia 57.9491
lfoot -20.9589 1.1925
ltoes 16.2661
1293
root 0.962513 15.7035 2.98349 5.51717 -46.6038 11.9832
lowerback -0.118218 4.80097 5.74106
upperback 5.68874 6.22761 -1.09567
thorax 6.77015 3.40643 -3.93337
lowerneck 0.464311 -9.15811 -12.7359
upperneck 47.1574 -17.8765 8.22732
head 21.1664 -8.83113 3.51757
rclavicle -3.81667e-014 1.59028e-015
rhumerus -20.6358 27.6669 -96.6864
rradius 20.7942
rwrist 16.5869
rhand -25.9739 -53.9861
rfingers 7.12502
rthumb 0.570953 -83.9651
lclavicle -3.81667e-014 1.59028e-015
lhumerus -46.427 -82.8325 122.472
lradius 84.951
lwrist 23.0611
lhand 5.58218 -20.1267
lfingers 7.12502
lthumb 30.9251 7.28906
rfemur -34.1086 2.18851 -4.70481
rtibia 76.3309
rfoot -1.81983 -8.49383
rtoes -32.1989
lfemur -49.8323 -18.3978 -28.7801
ltibia 57.9924
lfoot -20.9251 1.1717
ltoes 16.5863
1294
root 0.960825 15.7007 2.97775 5.59344 -46.5742 11.8246
lowerback -0.0285705 4.83719 5.89872
upperback 5.69455 6.27569 -1.10557
thorax 6.75198 3.43895 -4.03361
lowerneck 0.486003 -9.21172 -12.5485
upperneck 47.0871 -17.9539 8.19356
head 21.0711 -8.82934 3.44981
rclavicle -6.36111e-015 -2.06736e-014
rhumerus -20.6944 27.4592 -96.674
rradius 20.9835
rwrist 16.6855
rhand -25.8757 -54.0603
rfingers 7.12502
rthumb 0.665819 -84.039
lclavicle -6.36111e-015 -2.06736e-014
lhumerus -46.3063 -82.9303 122.347
lradius 84.8973
lwrist 23.0609
lhand 5.99934 -19.9697
lfingers 7.12502
lthumb 31.3227 7.36979
rfemur -34.0518 2.26651 -4.56231
rtibia 76.341
rfoot -1.93299 -8.57536
rtoes -31.7889
lfemur -49.8546 -18.3759 -28.6572
ltibia 58.0578
lfoot -20.9202 1.2672
ltoes 16.1503
1295
root 0.959774 15.6989 2.9715 5.66973 -46.5412 11.6914
lowerback 0.0127149 4.83271 6.05306
upperback 5.7082 6.26819 -1.13921
thorax 6.76588 3.44554 -4.15701
lowerneck 0.963246 -9.22518 -12.2597
upperneck 46.8284 -18.0744 8.26279
head 20.6783 -8.81177 3.32165
rclavicle 4.13472e-014 -1.11319e-014
rhumerus -20.7158 27.3544 -96.7252
rradius 21.049
rwrist 16.7643
rhand -25.8279 -54.1654
rfingers 7.12502
rthumb 0.711978 -84.144
lclavicle 4.13472e-014 -1.11319e-014
lhumerus -45.6312 -82.968 121.603
lradius 84.8553
lwrist 23.0809
lhand 6.72078 -20.1758
lfingers 7.12502
lthumb 32.0099 7.02819
rfemur -34.0242 2.30668 -4.42673
rtibia 76.361
rfoot -1.96667 -8.6382
rtoes -31.3891
lfemur -49.8997 -18.3583 -28.5343
ltibia 58.1203
lfoot -20.9619 1.20533
ltoes 16.1562
